<svg width="70" height="14" viewBox="0 0 70 14" fill="none" xmlns="http://www.w3.org/2000/svg">
<path d="M7.00033 10.0741L10.6053 12.25L9.64866 8.14913L12.8337 5.38996L8.63949 5.03413L7.00033 1.16663L5.36116 5.03413L1.16699 5.38996L4.35199 8.14913L3.39533 12.25L7.00033 10.0741Z" fill="#FFC107"/>
<path d="M21.0003 10.0741L24.6053 12.25L23.6487 8.14913L26.8337 5.38996L22.6395 5.03413L21.0003 1.16663L19.3612 5.03413L15.167 5.38996L18.352 8.14913L17.3953 12.25L21.0003 10.0741Z" fill="#FFC107"/>
<path d="M35.0003 10.0741L38.6053 12.25L37.6487 8.14913L40.8337 5.38996L36.6395 5.03413L35.0003 1.16663L33.3612 5.03413L29.167 5.38996L32.352 8.14913L31.3953 12.25L35.0003 10.0741Z" fill="#FFC107"/>
<path d="M49.0003 10.0741L52.6053 12.25L51.6487 8.14913L54.8337 5.38996L50.6395 5.03413L49.0003 1.16663L47.3612 5.03413L43.167 5.38996L46.352 8.14913L45.3953 12.25L49.0003 10.0741Z" fill="#FFC107"/>
<path d="M63.0003 10.0741L66.6053 12.25L65.6487 8.14913L68.8337 5.38996L64.6395 5.03413L63.0003 1.16663L61.3612 5.03413L57.167 5.38996L60.352 8.14913L59.3953 12.25L63.0003 10.0741Z" fill="black" fill-opacity="0.24"/>
</svg>
