<svg width="16" height="16" viewBox="0 0 16 16" fill="none" xmlns="http://www.w3.org/2000/svg">
<path fill-rule="evenodd" clip-rule="evenodd" d="M10.3065 10.0894C10.1815 10.0894 10.08 10.1848 10.08 10.3026V14.5625C10.08 14.6803 10.1815 14.7757 10.3065 14.7757H14.574C14.6985 14.7757 14.8 14.6803 14.8 14.5625V10.3026C14.8 10.1848 14.6985 10.0894 14.574 10.0894H10.3065ZM14.574 16H10.3065C9.52 16 8.88 15.3549 8.88 14.5625V10.3026C8.88 9.51015 9.52 8.8656 10.3065 8.8656H14.574C15.3605 8.8656 16 9.51015 16 10.3026V14.5625C16 15.3549 15.3605 16 14.574 16ZM10.3065 1.22434C10.1815 1.22434 10.08 1.31969 10.08 1.43698V5.69742C10.08 5.81522 10.1815 5.91057 10.3065 5.91057H14.574C14.6985 5.91057 14.8 5.81522 14.8 5.69742V1.43698C14.8 1.31969 14.6985 1.22434 14.574 1.22434H10.3065ZM14.574 7.1344H10.3065C9.52 7.1344 8.88 6.48985 8.88 5.69742V1.43698C8.88 0.645058 9.52 0 10.3065 0H14.574C15.3605 0 16 0.645058 16 1.43698V5.69742C16 6.48985 15.3605 7.1344 14.574 7.1344ZM1.4265 10.0894C1.3015 10.0894 1.2 10.1848 1.2 10.3026V14.5625C1.2 14.6803 1.3015 14.7757 1.4265 14.7757H5.694C5.8185 14.7757 5.92 14.6803 5.92 14.5625V10.3026C5.92 10.1848 5.8185 10.0894 5.694 10.0894H1.4265ZM5.694 16H1.4265C0.64 16 0 15.3549 0 14.5625V10.3026C0 9.51015 0.64 8.8656 1.4265 8.8656H5.694C6.4805 8.8656 7.12 9.51015 7.12 10.3026V14.5625C7.12 15.3549 6.4805 16 5.694 16ZM1.4265 1.22434C1.3015 1.22434 1.2 1.31969 1.2 1.43698V5.69742C1.2 5.81522 1.3015 5.91057 1.4265 5.91057H5.694C5.8185 5.91057 5.92 5.81522 5.92 5.69742V1.43698C5.92 1.31969 5.8185 1.22434 5.694 1.22434H1.4265ZM5.694 7.1344H1.4265C0.64 7.1344 0 6.48985 0 5.69742V1.43698C0 0.645058 0.64 0 1.4265 0H5.694C6.4805 0 7.12 0.645058 7.12 1.43698V5.69742C7.12 6.48985 6.4805 7.1344 5.694 7.1344Z" fill="#67758D"/>
</svg>
