<svg width="42" height="42" viewBox="0 0 42 42" fill="none" xmlns="http://www.w3.org/2000/svg">
<path d="M0 4C0 1.79086 1.79086 0 4 0H38C40.2091 0 42 1.79086 42 4V38C42 40.2091 40.2091 42 38 42H4C1.79086 42 0 40.2091 0 38V4Z" fill="#3B5998"/>
<path fill-rule="evenodd" clip-rule="evenodd" d="M23.3145 33V20.9986H26.5687L27 16.8628H23.3145L23.32 14.7929C23.32 13.7142 23.4207 13.1362 24.9426 13.1362H26.977V9H23.7223C19.8129 9 18.4369 11.0063 18.4369 14.3802V16.8633H16V20.9991H18.4369V33H23.3145Z" fill="white"/>
</svg>
