<svg width="42" height="42" viewBox="0 0 42 42" fill="none" xmlns="http://www.w3.org/2000/svg">
<path d="M0 4C0 1.79086 1.79086 0 4 0H38C40.2091 0 42 1.79086 42 4V38C42 40.2091 40.2091 42 38 42H4C1.79086 42 0 40.2091 0 38V4Z" fill="#DC4E41"/>
<path fill-rule="evenodd" clip-rule="evenodd" d="M15.5454 22.4V19.1428H24.5591C24.6409 19.6178 24.709 20.0929 24.709 20.7172C24.709 26.1458 21.0544 30 15.5454 30C10.2681 30 6 25.7522 6 20.5C6 15.2478 10.2681 11 15.5454 11C18.1228 11 20.2773 11.9364 21.9409 13.4835L19.3501 15.9672C18.6409 15.2886 17.3999 14.5015 15.5454 14.5015C12.2864 14.5015 9.6272 17.1886 9.6272 20.5C9.6272 23.8114 12.2864 26.4985 15.5454 26.4985C19.3228 26.4985 20.741 23.7979 20.959 22.4H15.5454ZM33.2727 19.1428H36V21.8572H33.2727V24.5714H30.5454V21.8572H27.8181V19.1428H30.5454V16.4286H33.2727V19.1428Z" fill="white"/>
</svg>
