<svg id="Layer_1" data-name="Layer 1" xmlns="http://www.w3.org/2000/svg" width="20" height="20" viewBox="0 0 20 20">
  <defs>
    <style>
      .cls-1 {
        fill: #67758d;
        fill-rule: evenodd;
      }
    </style>
  </defs>
  <path class="cls-1" d="M.2,4.8c0-.1-.1-.2-.1-.3A.9.9,0,0,1,0,4a.6.6,0,0,1,.1-.4c0-.1.1-.2.2-.3s.2-.2.3-.2S.7,3,.9,3H19.2a.37.37,0,0,1,.3.1c.1,0,.2.1.3.2s.1.2.2.3V4c0,.2,0,.3-.1.4s-.1.2-.2.4a.22.22,0,0,1-.2.2c-.1,0-.2.1-.3.1H.9A.37.37,0,0,1,.6,5,.52.52,0,0,1,.2,4.8Zm0,6.1c-.1-.1-.1-.2-.2-.4v-.3a.9.9,0,0,1,.1-.5c0-.1.1-.2.2-.3s.2-.2.3-.2.2-.1.3-.1H19.2a.37.37,0,0,1,.3.1c.1,0,.2.1.3.2s.1.2.2.3v.5c0,.2,0,.3-.1.4s-.1.2-.2.4-.2.2-.3.2-.2.1-.3.1H.9a.37.37,0,0,1-.3-.1A1.38,1.38,0,0,1,.2,10.9ZM.1,16.7c0,.1.1.2.2.4s.2.2.3.2.2.1.3.1H19.2a.37.37,0,0,0,.3-.1c.1,0,.2-.1.3-.2s.1-.2.2-.4.1-.3.1-.4a.6.6,0,0,0-.1-.4c0-.1-.1-.2-.2-.3s-.2-.2-.3-.2-.2-.1-.3-.1H.9a.37.37,0,0,0-.3.1c-.1,0-.2.1-.3.2s-.1.2-.2.3-.1.2-.1.4A.6.6,0,0,0,.1,16.7Z"/>
</svg>
