<svg width="14" height="16" viewBox="0 0 14 16" fill="none" xmlns="http://www.w3.org/2000/svg">
<path fill-rule="evenodd" clip-rule="evenodd" d="M12.8086 12.4945C12.7766 12.5515 12.7012 12.647 12.5571 12.647H1.44216C1.29947 12.647 1.22455 12.5535 1.19258 12.497C1.16443 12.4475 1.10669 12.3145 1.18686 12.158C1.33002 11.878 1.51469 11.6 1.70939 11.3055C2.27964 10.4445 2.92577 9.4685 2.92577 7.942V5.597C2.92577 3.1315 4.71098 1.2005 6.99008 1.2005C9.25153 1.2005 11.0239 3.1315 11.0239 5.597V7.942C11.0239 9.473 11.69 10.45 12.2779 11.312C12.4764 11.6035 12.6645 11.879 12.811 12.1555C12.8935 12.3105 12.8367 12.444 12.8086 12.4945ZM7.00487 14.8C6.48234 14.8 6.05334 14.384 5.98271 13.8475H8.02751C7.95689 14.384 7.52788 14.8 7.00487 14.8ZM13.8121 11.5725C13.6337 11.2365 13.4184 10.9205 13.2099 10.6145C12.6745 9.8295 12.1691 9.0885 12.1691 7.942V5.597C12.1691 2.4585 9.89432 0 6.99008 0C4.06866 0 1.78049 2.4585 1.78049 5.597V7.942C1.78049 9.093 1.28898 9.8355 0.768351 10.6215C0.563633 10.9305 0.351756 11.2505 0.177578 11.5905C-0.0700887 12.0745 -0.0581587 12.644 0.210028 13.1135C0.47201 13.573 0.932985 13.8475 1.44216 13.8475H4.83743C4.91378 15.0465 5.85101 16 7.00487 16C8.15874 16 9.09644 15.0465 9.17232 13.8475H12.5571C13.071 13.8475 13.5339 13.569 13.7954 13.103C14.0622 12.628 14.0684 12.056 13.8121 11.5725Z" fill="#67758D"/>
</svg>
