<svg width="20" height="22" viewBox="0 0 20 22" fill="none" xmlns="http://www.w3.org/2000/svg">
<path fill-rule="evenodd" clip-rule="evenodd" d="M17.6124 17.1802C17.5685 17.2586 17.4648 17.3899 17.2667 17.3899H1.98362C1.78743 17.3899 1.68441 17.2613 1.64045 17.1836C1.60174 17.1156 1.52234 16.9327 1.63258 16.7175C1.82942 16.3325 2.08335 15.9503 2.35106 15.5453C3.13516 14.3614 4.02358 13.0194 4.02358 10.9205V7.69613C4.02358 4.30606 6.47824 1.65094 9.61201 1.65094C12.7215 1.65094 15.1584 4.30606 15.1584 7.69613V10.9205C15.1584 13.0256 16.0744 14.369 16.8828 15.5543C17.1558 15.9551 17.4143 16.3339 17.6157 16.7141C17.7292 16.9272 17.6512 17.1108 17.6124 17.1802M9.6313 20.3502C8.91282 20.3502 8.32294 19.7782 8.22583 19.0405H11.0374C10.9403 19.7782 10.3504 20.3502 9.6313 20.3502M18.9917 15.9122C18.7463 15.4502 18.4504 15.0157 18.1636 14.5949C17.4274 13.5156 16.7326 12.4967 16.7326 10.9202V7.69588C16.7326 3.38044 13.6047 0 9.61136 0C5.59441 0 2.44818 3.38044 2.44818 7.69588V10.9202C2.44818 12.5029 1.77234 13.5238 1.05648 14.6046C0.774995 15.0294 0.483664 15.4694 0.24417 15.9369C-0.096372 16.6024 -0.0799682 17.3855 0.288788 18.0311C0.649014 18.6629 1.28285 19.0403 1.98297 19.0403H6.65147C6.75645 20.6889 8.04513 22 9.6317 22C11.2183 22 12.5076 20.6889 12.6119 19.0403H17.266C17.9727 19.0403 18.6091 18.6574 18.9687 18.0166C19.3355 17.3635 19.344 16.577 18.9917 15.9122" fill="#67758D"/>
</svg>
