<svg width="42" height="42" viewBox="0 0 42 42" fill="none" xmlns="http://www.w3.org/2000/svg">
<path d="M0 4C0 1.79086 1.79086 0 4 0H38C40.2091 0 42 1.79086 42 4V38C42 40.2091 40.2091 42 38 42H4C1.79086 42 0 40.2091 0 38V4Z" fill="#55ACEE"/>
<path fill-rule="evenodd" clip-rule="evenodd" d="M20.6823 16.7883L20.7299 17.5668L19.9351 17.4715C17.042 17.1061 14.5145 15.8667 12.3685 13.7853L11.3194 12.7525L11.0492 13.5152C10.4769 15.2153 10.8425 17.0107 12.0347 18.2183C12.6706 18.8856 12.5275 18.9809 11.4307 18.5837C11.0492 18.4566 10.7153 18.3613 10.6835 18.4089C10.5723 18.5202 10.9538 19.966 11.2558 20.538C11.6691 21.3325 12.5116 22.111 13.4336 22.5718L14.2125 22.9372L13.2905 22.9531C12.4003 22.9531 12.3685 22.969 12.4639 23.3027C12.7818 24.3355 14.0376 25.4318 15.4365 25.9084L16.4221 26.2421L15.5637 26.7506C14.292 27.4814 12.7977 27.8945 11.3035 27.9263C10.5882 27.9422 10 28.0058 10 28.0534C10 28.2123 11.9393 29.1021 13.068 29.4516C16.4539 30.4844 20.4756 30.0395 23.4959 28.2759C25.6419 27.0207 27.7879 24.5261 28.7893 22.111C29.3298 20.824 29.8703 18.4725 29.8703 17.3444C29.8703 16.6135 29.918 16.5182 30.8081 15.6443C31.3327 15.1358 31.8255 14.5797 31.9209 14.4209C32.0798 14.119 32.0639 14.119 31.2532 14.3891C29.9021 14.8657 29.7113 14.8022 30.3789 14.0872C30.8717 13.5787 31.4599 12.6572 31.4599 12.3871C31.4599 12.3394 31.2214 12.4189 30.9512 12.5619C30.6651 12.7208 30.0292 12.9591 29.5523 13.1021L28.6939 13.3722L27.915 12.8479C27.4858 12.5619 26.8818 12.2441 26.5639 12.1488C25.7531 11.9263 24.5132 11.9581 23.782 12.2123C21.795 12.9273 20.5392 14.7704 20.6823 16.7883Z" fill="white"/>
</svg>
