<svg width="15" height="16" viewBox="0 0 15 16" fill="none" xmlns="http://www.w3.org/2000/svg">
<path fill-rule="evenodd" clip-rule="evenodd" d="M14.2942 9.63115C13.9627 9.63115 13.6942 9.89964 13.6942 10.2311V13.96C13.6942 14.4235 13.3232 14.8 12.8672 14.8H2.02695C1.57096 14.8 1.19997 14.4235 1.19997 13.96V10.2311C1.19997 9.89964 0.931478 9.63115 0.599986 9.63115C0.268494 9.63115 0 9.89964 0 10.2311V13.96C0 15.085 0.908979 16 2.02695 16H12.8672C13.9852 16 14.8942 15.085 14.8942 13.96V10.2311C14.8942 9.89964 14.6257 9.63115 14.2942 9.63115ZM3.16193 4.79326C2.92993 4.55677 2.93443 4.17678 3.17093 3.94528L7.02734 0.171371C7.26033 -0.0571237 7.63332 -0.0571237 7.86682 0.171371L11.7232 3.94528C11.9597 4.17678 11.9642 4.55677 11.7322 4.79326C11.6147 4.91326 11.4592 4.97426 11.3032 4.97426C11.1522 4.97426 11.0007 4.91676 10.8837 4.80276L8.04681 2.02683V9.50265C8.04681 9.83414 7.77832 10.1026 7.44683 10.1026C7.11583 10.1026 6.84684 9.83414 6.84684 9.50265V2.02683L4.01041 4.80276C3.77341 5.03426 3.39342 5.02976 3.16193 4.79326Z" fill="#67758D"/>
</svg>
