<svg width="16" height="16" viewBox="0 0 16 16" fill="none" xmlns="http://www.w3.org/2000/svg">
<path fill-rule="evenodd" clip-rule="evenodd" d="M13.212 12.096L13.0735 11.426C12.912 10.646 12.312 10.035 11.5395 9.8585C11.273 9.7665 9.8135 9.2925 8 9.2925C6.186 9.2925 4.727 9.7665 4.4605 9.8585C3.6875 10.035 3.0875 10.646 2.9265 11.426L2.7875 12.096C1.798 10.9425 1.2 9.459 1.2 7.8395C1.2 4.1785 4.2505 1.2 8 1.2C11.7495 1.2 14.7995 4.1785 14.7995 7.8395C14.7995 9.459 14.2015 10.9425 13.212 12.096ZM3.814 13.0615L4.1015 11.669C4.169 11.344 4.4215 11.091 4.7455 11.0245C4.774 11.019 4.8025 11.0105 4.8295 11.001C4.8435 10.996 6.2545 10.4925 8 10.4925C9.745 10.4925 11.156 10.996 11.1705 11.001C11.1975 11.0105 11.226 11.019 11.254 11.0245C11.578 11.091 11.831 11.344 11.898 11.669L12.1855 13.0615C11.0305 13.9465 9.579 14.4795 8 14.4795C6.4205 14.4795 4.9695 13.9465 3.814 13.0615ZM8 0C3.5885 0 0 3.517 0 7.8395C0 12.1625 3.5885 15.6795 8 15.6795C12.411 15.6795 16 12.1625 16 7.8395C16 3.517 12.411 0 8 0ZM8 7.4995C7.049 7.4995 6.5355 6.534 6.5355 5.626C6.5355 4.815 7.1925 4.156 8 4.156C8.807 4.156 9.464 4.815 9.464 5.626C9.464 6.534 8.951 7.4995 8 7.4995ZM8 2.956C6.531 2.956 5.3355 4.1535 5.3355 5.626C5.3355 7.116 6.2695 8.6995 8 8.6995C9.7305 8.6995 10.664 7.116 10.664 5.626C10.664 4.1535 9.469 2.956 8 2.956Z" fill="#67758D"/>
</svg>
