<svg width="12" height="12" viewBox="0 0 12 12" fill="none" xmlns="http://www.w3.org/2000/svg">
<path fill-rule="evenodd" clip-rule="evenodd" d="M6 12C9.31372 12 12 9.31372 12 6C12 2.68628 9.31372 0 6 0C2.68628 0 0 2.68628 0 6C0 9.31372 2.68628 12 6 12ZM9.4668 4.37701C9.67493 4.1192 9.63477 3.74146 9.37695 3.53326C9.11926 3.32501 8.74146 3.36523 8.5332 3.62299L5.65967 7.18073L3.35132 5.51361C3.08264 5.31958 2.70764 5.38007 2.51355 5.64868C2.31958 5.91736 2.38013 6.29242 2.64868 6.48639L5.41797 8.48639L5.87878 8.81927L6.23596 8.37701L9.4668 4.37701Z" fill="#222325"/>
</svg>
