<svg width="12" height="12" viewBox="0 0 12 12" fill="none" xmlns="http://www.w3.org/2000/svg">
<path fill-rule="evenodd" clip-rule="evenodd" d="M6 12C9.31371 12 12 9.31371 12 6C12 2.68629 9.31371 0 6 0C2.68629 0 0 2.68629 0 6C0 9.31371 2.68629 12 6 12ZM9.46676 4.377C9.67498 4.11922 9.63479 3.74145 9.377 3.53324C9.11922 3.32502 8.74145 3.36521 8.53324 3.623L5.65967 7.18075L3.35129 5.51359C3.08266 5.31958 2.70761 5.38007 2.51359 5.64871C2.31958 5.91734 2.38007 6.29239 2.64871 6.48641L5.41794 8.48641L5.8788 8.81925L6.236 8.377L9.46676 4.377Z" fill="#58595A"/>
</svg>
