<?xml version="1.0" encoding="utf-8"?>
<!-- Generator: Adobe Illustrator 24.1.2, SVG Export Plug-In . SVG Version: 6.00 Build 0)  -->
<svg version="1.1" id="Layer_1" xmlns="http://www.w3.org/2000/svg" xmlns:xlink="http://www.w3.org/1999/xlink" x="0px" y="0px"
	 viewBox="0 0 94 21" style="enable-background:new 0 0 94 21;" xml:space="preserve">
<style type="text/css">
	.st0{fill:#FF0000;}
	.st1{fill:#FFFFFF;}
	.st2{fill:#282828;}
</style>
<g>
	<path class="st0" d="M29.3,3.3C29,2,28,1,26.7,0.6C24.4,0,15,0,15,0S5.6,0,3.3,0.6C2,1,1,2,0.6,3.3C0,5.6,0,10.5,0,10.5
		s0,4.9,0.6,7.2C1,19,2,20,3.3,20.3C5.6,21,15,21,15,21s9.4,0,11.7-0.6C28,20,29,19,29.3,17.7c0.6-2.3,0.6-7.2,0.6-7.2
		S30,5.6,29.3,3.3L29.3,3.3z"/>
	<path class="st1" d="M12,15l7.8-4.5L12,6V15z"/>
	<g>
		<path class="st2" d="M43.5,19.1c-0.6-0.4-1-1-1.3-1.9c-0.2-0.8-0.4-2-0.4-3.4V12c0-1.4,0.1-2.5,0.4-3.4c0.3-0.9,0.7-1.5,1.3-1.9
			C44.2,6.3,45,6.1,46,6.1c1,0,1.8,0.2,2.3,0.6c0.6,0.4,1,1,1.3,1.9c0.3,0.8,0.4,2,0.4,3.4v1.9c0,1.4-0.1,2.5-0.4,3.4
			c-0.3,0.8-0.7,1.5-1.3,1.9c-0.6,0.4-1.4,0.6-2.4,0.6C44.9,19.7,44.1,19.5,43.5,19.1z M46.8,17c0.2-0.4,0.2-1.1,0.2-2.1v-4.1
			c0-0.9-0.1-1.6-0.2-2.1S46.4,8.1,46,8.1c-0.4,0-0.7,0.2-0.8,0.6c-0.2,0.4-0.2,1.1-0.2,2.1v4.1c0,1,0.1,1.7,0.2,2.1
			c0.1,0.4,0.4,0.6,0.9,0.6C46.4,17.7,46.7,17.5,46.8,17L46.8,17z"/>
		<path class="st2" d="M89,13.9v0.7c0,0.8,0,1.5,0.1,1.9c0,0.4,0.1,0.7,0.3,0.9c0.1,0.2,0.4,0.3,0.7,0.3c0.4,0,0.7-0.2,0.9-0.5
			c0.2-0.3,0.2-0.9,0.3-1.7l2.5,0.1c0,0.1,0,0.3,0,0.5c0,1.2-0.3,2.1-1,2.7c-0.7,0.6-1.6,0.9-2.8,0.9c-1.5,0-2.5-0.5-3.1-1.4
			c-0.6-0.9-0.9-2.3-0.9-4.2v-2.3c0-2,0.3-3.4,0.9-4.3C87.7,6.5,88.7,6,90.2,6c1,0,1.8,0.2,2.3,0.6c0.5,0.4,0.9,1,1.1,1.7
			c0.2,0.8,0.3,1.9,0.3,3.3v2.2L89,13.9L89,13.9z M89.4,8.4c-0.1,0.2-0.2,0.5-0.3,0.9c0,0.4-0.1,1.1-0.1,1.9v0.9h2.2v-0.9
			c0-0.8,0-1.5-0.1-1.9c0-0.4-0.2-0.7-0.3-0.9c-0.1-0.2-0.4-0.3-0.7-0.3C89.8,8.1,89.6,8.2,89.4,8.4z"/>
		<path class="st2" d="M36.3,13.6L32.9,1.5h2.9L37.1,7c0.3,1.4,0.5,2.5,0.7,3.5h0.1c0.1-0.7,0.3-1.8,0.7-3.5l1.2-5.5h2.9l-3.4,12.2
			v5.8h-2.9L36.3,13.6L36.3,13.6z"/>
		<path class="st2" d="M59.6,6.3v13.2h-2.3L57,17.9H57c-0.6,1.2-1.6,1.8-2.8,1.8c-0.9,0-1.5-0.3-1.9-0.9c-0.4-0.6-0.6-1.5-0.6-2.7
			V6.3h3V16c0,0.6,0.1,1,0.2,1.3c0.1,0.2,0.3,0.4,0.6,0.4c0.2,0,0.5-0.1,0.7-0.2c0.2-0.1,0.4-0.3,0.5-0.6V6.3H59.6z"/>
		<path class="st2" d="M74.8,6.3v13.2h-2.3l-0.2-1.6h-0.1c-0.6,1.2-1.6,1.8-2.8,1.8c-0.9,0-1.5-0.3-1.9-0.9
			c-0.4-0.6-0.6-1.5-0.6-2.7V6.3h3V16c0,0.6,0.1,1,0.2,1.3c0.1,0.2,0.3,0.4,0.6,0.4c0.2,0,0.5-0.1,0.7-0.2c0.2-0.1,0.4-0.3,0.5-0.6
			V6.3H74.8z"/>
		<path class="st2" d="M67.7,3.9h-2.9v15.6h-2.9V3.9h-2.9V1.5h8.8L67.7,3.9z"/>
		<path class="st2" d="M84.6,8.4c-0.2-0.8-0.5-1.4-0.9-1.8c-0.4-0.4-1-0.6-1.7-0.6c-0.5,0-1.1,0.1-1.5,0.5c-0.5,0.3-0.8,0.7-1.1,1.2
			h0V0.8h-2.9v18.7H79l0.3-1.2h0.1c0.2,0.4,0.6,0.8,1,1.1c0.5,0.2,1,0.4,1.5,0.4c1,0,1.7-0.5,2.2-1.4c0.5-0.9,0.7-2.4,0.7-4.3v-2.1
			C84.8,10.4,84.7,9.3,84.6,8.4L84.6,8.4z M81.9,13.8c0,1,0,1.7-0.1,2.2c-0.1,0.5-0.2,0.9-0.4,1.2c-0.2,0.2-0.4,0.3-0.7,0.3
			c-0.2,0-0.5,0-0.7-0.2c-0.2-0.1-0.4-0.3-0.5-0.5V9.4c0.1-0.3,0.3-0.6,0.5-0.9c0.2-0.2,0.5-0.3,0.8-0.3c0.3,0,0.5,0.1,0.7,0.3
			c0.2,0.2,0.3,0.6,0.3,1.2c0.1,0.6,0.1,1.4,0.1,2.4L81.9,13.8L81.9,13.8z"/>
	</g>
</g>
</svg>
